<svg width="31" height="38" viewBox="0 0 31 38" fill="none" xmlns="http://www.w3.org/2000/svg">
<g filter="url(#filter0_d_82_12563)">
<path d="M4.16969 15.7641L10.6748 29.6877C10.87 30.1054 11.4646 30.1037 11.6574 29.6848L18.1134 15.6539C18.3043 15.2389 18.3043 14.7611 18.1134 14.3461L11.6574 0.315177C11.4646 -0.103713 10.87 -0.105445 10.6748 0.312313L4.16969 14.2359C3.94344 14.7202 3.94344 15.2798 4.16969 15.7641Z" fill="#75259B"/>
<path d="M20.9588 3.03782L19.9222 5.25657C19.7719 5.57818 19.7709 5.94961 19.9192 6.27208L23.4133 13.8659C23.5607 14.1861 23.5607 14.5548 23.4133 14.875L19.9192 22.4689C19.7709 22.7913 19.7719 23.1628 19.9222 23.4844L20.9588 25.7031C21.1094 26.0255 21.5682 26.0241 21.7169 25.7009L26.6982 14.875C26.8456 14.5548 26.8456 14.1861 26.6982 13.8659L21.7169 3.04002C21.5682 2.71682 21.1094 2.71548 20.9588 3.03782Z" fill="#75259B"/>
</g>
<defs>
<filter id="filter0_d_82_12563" x="0" y="0" width="30.8087" height="38" filterUnits="userSpaceOnUse" color-interpolation-filters="sRGB">
<feFlood flood-opacity="0" result="BackgroundImageFix"/>
<feColorMatrix in="SourceAlpha" type="matrix" values="0 0 0 0 0 0 0 0 0 0 0 0 0 0 0 0 0 0 127 0" result="hardAlpha"/>
<feOffset dy="4"/>
<feGaussianBlur stdDeviation="2"/>
<feComposite in2="hardAlpha" operator="out"/>
<feColorMatrix type="matrix" values="0 0 0 0 0 0 0 0 0 0 0 0 0 0 0 0 0 0 0.25 0"/>
<feBlend mode="normal" in2="BackgroundImageFix" result="effect1_dropShadow_82_12563"/>
<feBlend mode="normal" in="SourceGraphic" in2="effect1_dropShadow_82_12563" result="shape"/>
</filter>
</defs>
</svg>
